<svg width="50" height="54" viewBox="0 0 50 54" fill="none" xmlns="http://www.w3.org/2000/svg">
<path d="M38 2L12 2C5.37258 2 0 7.37258 0 14L0 40C0 46.6274 5.37258 52 12 52H38C44.6274 52 50 46.6274 50 40V14C50 7.37258 44.6274 2 38 2Z" fill="#F29C1F"/>
<path d="M27.071 36.8636V35.1378C27.071 33.9446 27.3161 32.8526 27.8061 31.8619C28.3068 30.8604 29.0313 30.0614 29.9794 29.4648C30.9382 28.8576 32.0994 28.554 33.4631 28.554C34.848 28.554 36.0092 28.8576 36.9467 29.4648C37.8842 30.0614 38.5927 30.8604 39.0721 31.8619C39.5515 32.8526 39.7912 33.9446 39.7912 35.1378V36.8636C39.7912 38.0568 39.5462 39.1541 39.0561 40.1555C38.5767 41.1463 37.8629 41.9453 36.9148 42.5526C35.9773 43.1491 34.8267 43.4474 33.4631 43.4474C32.0781 43.4474 30.9116 43.1491 29.9634 42.5526C29.0153 41.9453 28.2962 41.1463 27.8061 40.1555C27.3161 39.1541 27.071 38.0568 27.071 36.8636ZM30.331 35.1378V36.8636C30.331 37.8544 30.5653 38.744 31.0341 39.5323C31.5028 40.31 32.3125 40.6989 33.4631 40.6989C34.5817 40.6989 35.37 40.31 35.8281 39.5323C36.2969 38.744 36.5312 37.8544 36.5312 36.8636V35.1378C36.5312 34.147 36.3075 33.2628 35.8601 32.4851C35.4126 31.6967 34.6136 31.3026 33.4631 31.3026C32.3445 31.3026 31.5401 31.6967 31.0501 32.4851C30.5707 33.2628 30.331 34.147 30.331 35.1378ZM10.7713 18.1349V16.4091C10.7713 15.2159 11.0163 14.1239 11.5064 13.1332C12.0071 12.1317 12.7315 11.3327 13.6797 10.7362C14.6385 10.1289 15.7997 9.82528 17.1634 9.82528C18.5483 9.82528 19.7095 10.1289 20.647 10.7362C21.5845 11.3327 22.293 12.1317 22.7724 13.1332C23.2518 14.1239 23.4915 15.2159 23.4915 16.4091V18.1349C23.4915 19.3281 23.2464 20.4254 22.7564 21.4268C22.277 22.4176 21.5632 23.2166 20.6151 23.8239C19.6776 24.4205 18.527 24.7188 17.1634 24.7188C15.7784 24.7188 14.6119 24.4205 13.6637 23.8239C12.7156 23.2166 11.9964 22.4176 11.5064 21.4268C11.0163 20.4254 10.7713 19.3281 10.7713 18.1349ZM14.0312 16.4091V18.1349C14.0312 19.1257 14.2656 20.0153 14.7344 20.8036C15.2031 21.5813 16.0128 21.9702 17.1634 21.9702C18.282 21.9702 19.0703 21.5813 19.5284 20.8036C19.9972 20.0153 20.2315 19.1257 20.2315 18.1349V16.4091C20.2315 15.4183 20.0078 14.5341 19.5604 13.7564C19.1129 12.968 18.3139 12.5739 17.1634 12.5739C16.0447 12.5739 15.2404 12.968 14.7504 13.7564C14.271 14.5341 14.0312 15.4183 14.0312 16.4091ZM11.9858 43L34.4858 10.2727H38.1293L15.6293 43H11.9858Z" fill="white"/>
</svg>
