<svg width="466" height="466" viewBox="0 0 466 466" fill="none" xmlns="http://www.w3.org/2000/svg">
<g clip-path="url(#clip0_1_55)">
<mask id="mask0_1_55" style="mask-type:alpha" maskUnits="userSpaceOnUse" x="0" y="0" width="466" height="466">
<circle cx="233" cy="233" r="233" fill="#307E6C"/>
</mask>
<g mask="url(#mask0_1_55)">
<circle cx="233" cy="233" r="233" fill="#2B996D"/>
<path d="M174.81 521L72 341.278L396.558 117L467.619 240.653L485.762 260.177L516 360.802L174.81 521Z" fill="#307E6C"/>
<circle cx="233" cy="233" r="229.5" stroke="white" stroke-width="7"/>
</g>
<g clip-path="url(#clip1_1_55)">
<path d="M395.915 121.659C397.62 115.266 393.829 108.699 387.44 106.979L161.399 46.1268C154.989 44.4011 148.396 48.2078 146.685 54.622L72.085 334.341C70.38 340.734 74.1713 347.301 80.5603 349.021L306.601 409.873C313.011 411.599 319.604 407.792 321.315 401.378L395.915 121.659Z" fill="#575C55"/>
<path d="M372.088 144.231C373.793 137.838 370.001 131.272 363.612 129.552L170.801 77.6449C164.39 75.9193 157.797 79.7259 156.086 86.1401L144.96 127.86C143.255 134.253 147.046 140.819 153.435 142.539L346.247 194.446C352.657 196.172 359.251 192.365 360.961 185.951L372.088 144.231Z" fill="#575C55"/>
<path d="M333.138 290.277C334.843 283.884 331.052 277.317 324.663 275.597L297.995 268.418C291.584 266.692 284.991 270.499 283.28 276.913L260.613 361.905C258.908 368.298 262.7 374.865 269.089 376.585L295.757 383.764C302.167 385.49 308.76 381.683 310.471 375.269L333.138 290.277Z" fill="#575C55"/>
<path d="M177.325 184.558C179.03 178.165 175.238 171.599 168.849 169.879L147.719 164.19C141.309 162.465 134.716 166.271 133.005 172.686L126.206 198.178C124.501 204.571 128.293 211.138 134.682 212.858L155.812 218.546C162.222 220.272 168.815 216.465 170.526 210.051L177.325 184.558Z" fill="#575C55"/>
<path d="M232.706 199.468C234.411 193.075 230.62 186.508 224.231 184.788L203.101 179.099C196.69 177.374 190.097 181.18 188.386 187.595L181.588 213.087C179.883 219.48 183.674 226.047 190.063 227.767L211.193 233.455C217.603 235.181 224.197 231.374 225.907 224.96L232.706 199.468Z" fill="#575C55"/>
<path d="M288.087 214.377C289.792 207.984 286.001 201.417 279.612 199.697L258.482 194.009C252.072 192.283 245.478 196.09 243.768 202.504L236.969 227.996C235.264 234.389 239.055 240.956 245.444 242.676L266.574 248.364C272.984 250.09 279.578 246.283 281.288 239.869L288.087 214.377Z" fill="#575C55"/>
<path d="M349.007 230.777C350.711 224.384 346.92 217.817 340.531 216.097L313.863 208.918C307.453 207.192 300.859 210.999 299.149 217.413L292.35 242.905C290.645 249.298 294.437 255.865 300.825 257.585L327.494 264.764C333.904 266.49 340.497 262.683 342.208 256.269L349.007 230.777Z" fill="#575C55"/>
<path d="M161.456 244.058C163.161 237.665 159.37 231.099 152.981 229.379L131.851 223.69C125.441 221.965 118.847 225.771 117.137 232.186L110.338 257.678C108.633 264.071 112.424 270.638 118.813 272.358L139.943 278.046C146.354 279.772 152.947 275.965 154.658 269.551L161.456 244.058Z" fill="#575C55"/>
<path d="M216.837 258.968C218.542 252.575 214.751 246.008 208.362 244.288L187.232 238.599C180.822 236.874 174.229 240.68 172.518 247.095L165.719 272.587C164.014 278.98 167.806 285.547 174.195 287.267L195.325 292.955C201.735 294.681 208.328 290.874 210.039 284.46L216.837 258.968Z" fill="#575C55"/>
<path d="M272.219 273.877C273.924 267.484 270.132 260.917 263.743 259.197L242.613 253.509C236.203 251.783 229.61 255.59 227.899 262.004L221.101 287.496C219.396 293.889 223.187 300.456 229.576 302.176L250.706 307.864C257.116 309.59 263.709 305.783 265.42 299.369L272.219 273.877Z" fill="#575C55"/>
<path d="M145.588 303.558C147.293 297.165 143.502 290.599 137.113 288.879L115.983 283.19C109.572 281.465 102.979 285.271 101.268 291.686L94.4697 317.178C92.7647 323.571 96.5561 330.138 102.945 331.857L124.075 337.546C130.485 339.272 137.079 335.465 138.789 329.051L145.588 303.558Z" fill="#575C55"/>
<path d="M200.969 318.468C202.674 312.075 198.883 305.508 192.494 303.788L171.364 298.099C164.954 296.374 158.36 300.18 156.65 306.595L149.851 332.087C148.146 338.48 151.937 345.047 158.326 346.767L179.456 352.455C185.866 354.181 192.46 350.374 194.17 343.96L200.969 318.468Z" fill="#575C55"/>
<path d="M256.35 333.377C258.055 326.984 254.264 320.417 247.875 318.697L226.745 313.009C220.335 311.283 213.742 315.09 212.031 321.504L205.232 346.996C203.527 353.389 207.319 359.956 213.707 361.676L234.838 367.364C241.248 369.09 247.841 365.283 249.552 358.869L256.35 333.377Z" fill="#575C55"/>
<path d="M379.177 104.218L161.935 46.0076C155.533 44.2923 148.953 48.0913 147.238 54.4929L74.5762 325.669C72.8609 332.071 76.6598 338.651 83.0614 340.366L300.304 398.576C306.706 400.292 313.286 396.493 315.001 390.091L387.663 118.915C389.378 112.513 385.579 105.933 379.177 104.218Z" fill="#C9C9BA"/>
<path d="M356.107 126.205L170.921 76.5844C164.519 74.8691 157.939 78.6681 156.224 85.0697L145.534 124.964C143.819 131.366 147.618 137.946 154.019 139.661L339.205 189.282C345.607 190.997 352.187 187.198 353.902 180.796L364.592 140.902C366.307 134.5 362.508 127.92 356.107 126.205Z" fill="#98A5A8"/>
<path d="M318.079 268.128L293.176 261.455C286.774 259.74 280.194 263.539 278.479 269.94L256.522 351.886C254.806 358.288 258.605 364.868 265.007 366.583L289.91 373.256C296.311 374.971 302.891 371.172 304.607 364.771L326.564 282.825C328.279 276.423 324.48 269.843 318.079 268.128Z" fill="#F29C1F"/>
<path d="M167.945 165.928L148.386 160.687C141.984 158.972 135.404 162.771 133.689 169.172L127.224 193.298C125.509 199.699 129.308 206.279 135.709 207.995L155.269 213.236C161.671 214.951 168.251 211.152 169.966 204.75L176.431 180.625C178.146 174.223 174.347 167.643 167.945 165.928Z" fill="#575C55"/>
<path d="M221.373 180.244L201.813 175.003C195.412 173.288 188.832 177.087 187.116 183.488L180.652 207.614C178.937 214.015 182.736 220.595 189.137 222.311L208.697 227.552C215.099 229.267 221.679 225.468 223.394 219.066L229.859 194.941C231.574 188.539 227.775 181.959 221.373 180.244Z" fill="#575C55"/>
<path d="M274.801 194.56L255.241 189.319C248.839 187.603 242.259 191.402 240.544 197.804L234.08 221.93C232.364 228.331 236.163 234.911 242.565 236.626L262.125 241.868C268.527 243.583 275.107 239.784 276.822 233.382L283.286 209.257C285.002 202.855 281.203 196.275 274.801 194.56Z" fill="#575C55"/>
<path d="M333.572 210.307L308.669 203.635C302.267 201.919 295.687 205.718 293.972 212.12L287.507 236.245C285.792 242.647 289.591 249.227 295.993 250.942L320.895 257.615C327.297 259.33 333.877 255.531 335.592 249.13L342.057 225.004C343.772 218.603 339.973 212.023 333.572 210.307Z" fill="#FFFEF9"/>
<path d="M152.453 223.749L132.893 218.507C126.491 216.792 119.911 220.591 118.196 226.993L111.731 251.118C110.016 257.52 113.815 264.1 120.217 265.815L139.776 271.056C146.178 272.771 152.758 268.973 154.473 262.571L160.938 238.445C162.653 232.044 158.854 225.464 152.453 223.749Z" fill="#575C55"/>
<path d="M205.88 238.064L186.32 232.823C179.919 231.108 173.339 234.907 171.623 241.309L165.159 265.434C163.444 271.836 167.243 278.416 173.644 280.131L193.204 285.372C199.606 287.087 206.186 283.288 207.901 276.887L214.366 252.761C216.081 246.36 212.282 239.78 205.88 238.064Z" fill="#575C55"/>
<path d="M259.308 252.38L239.748 247.139C233.346 245.424 226.766 249.223 225.051 255.625L218.587 279.75C216.871 286.152 220.67 292.732 227.072 294.447L246.632 299.688C253.034 301.403 259.614 297.604 261.329 291.203L267.793 267.077C269.509 260.676 265.71 254.096 259.308 252.38Z" fill="#575C55"/>
<path d="M136.96 281.569L117.4 276.328C110.998 274.613 104.418 278.412 102.703 284.813L96.2383 308.939C94.523 315.34 98.322 321.92 104.724 323.636L124.284 328.877C130.685 330.592 137.265 326.793 138.98 320.391L145.445 296.266C147.16 289.864 143.361 283.284 136.96 281.569Z" fill="#575C55"/>
<path d="M190.387 295.885L170.827 290.644C164.426 288.929 157.846 292.727 156.13 299.129L149.666 323.255C147.951 329.656 151.75 336.236 158.151 337.951L177.711 343.193C184.113 344.908 190.693 341.109 192.408 334.707L198.873 310.582C200.588 304.18 196.789 297.6 190.387 295.885Z" fill="#575C55"/>
<path d="M243.815 310.201L224.255 304.96C217.854 303.244 211.273 307.043 209.558 313.445L203.094 337.57C201.378 343.972 205.177 350.552 211.579 352.267L231.139 357.508C237.541 359.224 244.121 355.425 245.836 349.023L252.3 324.898C254.016 318.496 250.217 311.916 243.815 310.201Z" fill="#575C55"/>
</g>
</g>
<rect x="0.5" y="0.5" width="465" height="465" rx="1.5" stroke="black" stroke-opacity="0.1"/>
<defs>
<clipPath id="clip0_1_55">
<rect width="466" height="466" rx="2" fill="white"/>
</clipPath>
<clipPath id="clip1_1_55">
<rect width="345.703" height="340.115" fill="white" transform="translate(107.68 12.456) rotate(15)"/>
</clipPath>
</defs>
</svg>
